<?xml version="1.0" encoding="UTF-8" standalone="no"?>
<!-- Created with Inkscape (http://www.inkscape.org/) -->

<svg
   width="24"
   height="24"
   viewBox="0 0 24 24"
   version="1.1"
   id="svg1"
   xml:space="preserve"
   xmlns="http://www.w3.org/2000/svg"
   xmlns:svg="http://www.w3.org/2000/svg"><defs
     id="defs1"><style
       id="style2">.cls-1{fill:red;}</style></defs><g
     id="layer4"><g
       style="fill:#e8eaed"
       id="g9"
       transform="matrix(0.35252168,0,0,0.35252168,86.789594,432.26084)"><path
         id="path11"
         d="m -212.14659,-1169.9131 q -11.14531,0 -20.31473,-6.0508 -9.16939,-6.051 -13.73439,-16.1921 4.565,-10.1412 13.72496,-16.1922 9.15999,-6.0508 20.30531,-6.0508 11.14532,0 20.31473,6.0508 9.16941,6.051 13.7344,16.1922 -4.56499,10.1411 -13.72496,16.1921 -9.15999,6.0508 -20.30532,6.0508 z m -0.008,-22.2429 z m 0,18.8211 q 9.69083,0 17.79512,-5.0905 8.10428,-5.0904 12.39226,-13.7306 -4.28798,-8.6407 -12.39226,-13.7307 -8.10429,-5.0905 -17.79512,-5.0905 -9.69081,0 -17.79511,5.0905 -8.10427,5.09 -12.39225,13.7307 4.28798,8.6402 12.39225,13.7306 8.1043,5.0905 17.79511,5.0905 z"
         style="fill:#ff0000;fill-opacity:1;stroke-width:0.0856547" /><path
         id="path1-0"
         d="m -198.35145,-1172.7236 c 0.66592,-1.6197 0.99887,-3.3824 0.99887,-5.2879 0,-3.8109 -1.33746,-7.0445 -4.01237,-9.7007 -2.67491,-2.6567 -5.92299,-3.9851 -9.74422,-3.9851 -3.82123,0 -7.06366,1.3339 -9.72731,4.0018 -2.66363,2.6677 -3.99544,5.9069 -3.99544,9.7177 0,1.9056 0.33437,3.6669 1.00309,5.2838 m 5.54212,1.8722 c -1.97421,-1.9689 -2.96131,-4.3598 -2.96131,-7.1725 0,-2.8129 0.9871,-5.2038 2.96131,-7.1728 1.97425,-1.9688 4.37154,-2.9532 7.19188,-2.9532 2.82029,0 5.21756,0.9844 7.1918,2.9532 1.97424,1.969 2.96136,4.3599 2.96136,7.1728 0,2.8127 -0.76773,4.6395 -2.74197,6.6084"
         style="fill:#ff0000;fill-opacity:1;stroke-width:0.0938839" /></g></g></svg>
