<?xml version="1.0" encoding="UTF-8" standalone="no"?>
<!-- Created with Inkscape (http://www.inkscape.org/) -->

<svg
   width="24"
   height="24"
   viewBox="0 0 24 24"
   version="1.1"
   id="svg1"
   xml:space="preserve"
   xmlns="http://www.w3.org/2000/svg"
   xmlns:svg="http://www.w3.org/2000/svg"><defs
     id="defs1"><style
       id="style2">.cls-1{fill:red;}</style></defs><g
     id="layer4"><g
       style="fill:#e8eaed"
       id="g9"
       transform="matrix(0.35252168,0,0,0.35252168,86.789594,432.26084)"><path
         id="path11"
         d="m -212.14735,-1169.9131 q -11.14531,0 -20.31473,-6.0508 -9.16939,-6.051 -13.73439,-16.1921 4.565,-10.1412 13.72496,-16.1922 9.15999,-6.0508 20.30531,-6.0508 11.14532,0 20.31473,6.0508 9.16941,6.051 13.7344,16.1922 -4.56499,10.1411 -13.72496,16.1921 -9.15999,6.0508 -20.30532,6.0508 z m -0.008,-22.2429 z m 0,18.8211 q 9.69083,0 17.79512,-5.0905 8.10428,-5.0904 12.39226,-13.7306 -4.28798,-8.6407 -12.39226,-13.7307 -8.10429,-5.0905 -17.79512,-5.0905 -9.69081,0 -17.79511,5.0905 -8.10427,5.09 -12.39225,13.7307 4.28798,8.6402 12.39225,13.7306 8.1043,5.0905 17.79511,5.0905 z"
         style="fill:#ff0000;fill-opacity:1;stroke-width:0.0856547" /><path
         id="path1-0"
         d="m -203.12377,-1179.6528 q 5.22878,0 8.87352,-3.6513 3.6448,-3.6512 3.6448,-8.8675 0,-5.216 -3.66021,-8.8516 -3.66022,-3.6361 -8.88899,-3.6361 -5.22874,0 -8.87355,3.6514 -3.64476,3.6512 -3.64476,8.8671 0,5.2163 3.66021,8.8519 3.66022,3.6361 8.88898,3.6361 z m -0.0178,-3.2638 q -3.85922,0 -6.56065,-2.6947 -2.7014,-2.6949 -2.7014,-6.5447 0,-3.8499 2.7014,-6.5448 2.70143,-2.6947 6.56065,-2.6947 3.85913,0 6.56058,2.6947 2.70144,2.6949 2.70144,6.5448 0,3.8498 -2.70144,6.5447 -2.70145,2.6947 -6.56058,2.6947 z"
         style="fill:#ff0000;fill-opacity:1;stroke-width:0.0856547" /></g></g></svg>
