<?xml version="1.0" encoding="UTF-8" standalone="no"?>
<!-- Created with Inkscape (http://www.inkscape.org/) -->

<svg
   width="24"
   height="24"
   viewBox="0 0 24 24"
   version="1.1"
   id="svg1"
   xml:space="preserve"
   xmlns="http://www.w3.org/2000/svg"
   xmlns:svg="http://www.w3.org/2000/svg"><defs
     id="defs1"><style
       id="style2">.cls-1{fill:red;}</style></defs><g
     id="layer4"><g
       style="fill:#e8eaed"
       id="g9"
       transform="matrix(0.35252168,0,0,0.35252168,86.789594,432.26084)"><path
         id="path11"
         d="m -212.14659,-1169.9131 c -7.43021,0 -14.20178,-2.0169 -20.31473,-6.0508 -6.11293,-4.034 -10.69106,-9.4314 -13.73439,-16.1921 3.04333,-6.7608 7.61832,-12.1582 13.72496,-16.1922 6.10666,-4.0339 12.8751,-6.0508 20.30531,-6.0508 7.43021,0 14.20179,2.0169 20.31473,6.0508 6.11294,4.034 10.69107,9.4314 13.7344,16.1922 -3.04333,6.7607 -7.61831,12.1581 -13.72496,16.1921 -6.10666,4.0339 -12.8751,6.0508 -20.30532,6.0508 z m -0.008,-4.2196 c 6.18669,0 11.86696,-1.6249 17.04079,-4.8747 5.17383,-3.2498 9.12948,-7.6326 11.86696,-13.1486 -2.73748,-5.5163 -6.69313,-9.8992 -11.86696,-13.1487 -5.17383,-3.2498 -10.8541,-4.8747 -17.04079,-4.8747 -6.18668,0 -11.86694,1.6249 -17.04078,4.8747 -5.17382,3.2495 -9.12947,7.6324 -11.86695,13.1487 2.73748,5.516 6.69313,9.8988 11.86695,13.1486 5.17384,3.2498 10.8541,4.8747 17.04078,4.8747 z"
         style="fill:#ff0000;fill-opacity:1;stroke-width:0.0856547" /><ellipse
         style="fill:#ff0000;fill-opacity:1;stroke-width:0.323204"
         id="path2"
         cx="12"
         cy="15.074865"
         rx="4.957437"
         ry="4.794394"
         transform="matrix(2.836705,0,0,2.836705,-246.19647,-1226.1965)" /></g></g></svg>
