<svg width="368" height="80" viewBox="0 0 368 80" fill="none" xmlns="http://www.w3.org/2000/svg">
<g clip-path="url(#clip0_76_12)">
<path d="M112.922 41.627H100.764V38.5508H112.922C115.461 38.5508 117.521 38.1406 119.104 37.3203C120.705 36.4805 121.867 35.3477 122.59 33.9219C123.332 32.4961 123.703 30.8945 123.703 29.1172C123.703 27.3789 123.332 25.7773 122.59 24.3125C121.867 22.8477 120.705 21.6758 119.104 20.7969C117.521 19.8984 115.461 19.4492 112.922 19.4492H102.023V59H98.4199V16.3438H112.922C116.047 16.3438 118.674 16.8809 120.803 17.9551C122.951 19.0293 124.572 20.5234 125.666 22.4375C126.76 24.3516 127.307 26.5586 127.307 29.0586C127.307 31.6758 126.76 33.9316 125.666 35.8262C124.572 37.7012 122.961 39.1367 120.832 40.1328C118.703 41.1289 116.066 41.627 112.922 41.627ZM132.229 43.6484V42.6816C132.229 40.377 132.561 38.248 133.225 36.2949C133.889 34.3418 134.836 32.6523 136.066 31.2266C137.316 29.8008 138.811 28.6973 140.549 27.916C142.287 27.1152 144.221 26.7148 146.35 26.7148C148.498 26.7148 150.441 27.1152 152.18 27.916C153.918 28.6973 155.412 29.8008 156.662 31.2266C157.912 32.6523 158.869 34.3418 159.533 36.2949C160.197 38.248 160.529 40.377 160.529 42.6816V43.6484C160.529 45.9531 160.197 48.082 159.533 50.0352C158.869 51.9688 157.912 53.6484 156.662 55.0742C155.432 56.5 153.947 57.6133 152.209 58.4141C150.471 59.1953 148.537 59.5859 146.408 59.5859C144.26 59.5859 142.316 59.1953 140.578 58.4141C138.84 57.6133 137.346 56.5 136.096 55.0742C134.846 53.6484 133.889 51.9688 133.225 50.0352C132.561 48.082 132.229 45.9531 132.229 43.6484ZM135.715 42.6816V43.6484C135.715 45.3867 135.949 47.0371 136.418 48.5996C136.887 50.1426 137.57 51.5195 138.469 52.7305C139.367 53.9219 140.48 54.8594 141.809 55.543C143.137 56.2266 144.67 56.5684 146.408 56.5684C148.127 56.5684 149.641 56.2266 150.949 55.543C152.277 54.8594 153.391 53.9219 154.289 52.7305C155.188 51.5195 155.861 50.1426 156.311 48.5996C156.779 47.0371 157.014 45.3867 157.014 43.6484V42.6816C157.014 40.9629 156.779 39.332 156.311 37.7891C155.861 36.2461 155.178 34.8691 154.26 33.6582C153.361 32.4473 152.248 31.4902 150.92 30.7871C149.592 30.084 148.068 29.7324 146.35 29.7324C144.631 29.7324 143.107 30.084 141.779 30.7871C140.471 31.4902 139.357 32.4473 138.439 33.6582C137.541 34.8691 136.857 36.2461 136.389 37.7891C135.939 39.332 135.715 40.9629 135.715 42.6816ZM171.691 14V59H168.205V14H171.691ZM190.676 55.8359L200.549 27.3008H204.328L190.91 64.0977C190.637 64.8203 190.285 65.6211 189.855 66.5C189.445 67.3789 188.898 68.2188 188.215 69.0195C187.551 69.8398 186.711 70.5039 185.695 71.0117C184.699 71.5391 183.479 71.8027 182.033 71.8027C181.662 71.8027 181.184 71.7539 180.598 71.6562C180.031 71.5781 179.621 71.5 179.367 71.4219L179.338 68.4629C179.553 68.5215 179.865 68.5703 180.275 68.6094C180.686 68.6484 180.969 68.668 181.125 68.668C182.395 68.668 183.459 68.4531 184.318 68.0234C185.197 67.5938 185.93 66.9492 186.516 66.0898C187.102 65.25 187.619 64.1953 188.068 62.9258L190.676 55.8359ZM181.447 27.3008L191.555 54.5176L192.492 58.1797L189.943 59.6152L177.639 27.3008H181.447ZM218.596 51.5879L226.242 27.3008H228.703L227.238 33.834L219.24 59H216.779L218.596 51.5879ZM210.656 27.3008L217.365 51.7344L218.801 59H216.252L207.053 27.3008H210.656ZM238.225 51.6465L244.758 27.3008H248.361L239.162 59H236.643L238.225 51.6465ZM229.201 27.3008L236.73 51.3828L238.635 59H236.174L228 33.8047L226.623 27.3008H229.201ZM274.377 53.3164V36.9688C274.377 35.4648 274.064 34.166 273.439 33.0723C272.814 31.9785 271.896 31.1387 270.686 30.5527C269.475 29.9668 267.98 29.6738 266.203 29.6738C264.562 29.6738 263.098 29.9668 261.809 30.5527C260.539 31.1191 259.533 31.8906 258.791 32.8672C258.068 33.8242 257.707 34.8887 257.707 36.0605L254.191 36.0312C254.191 34.8398 254.484 33.6875 255.07 32.5742C255.656 31.4609 256.486 30.4648 257.561 29.5859C258.635 28.707 259.914 28.0137 261.398 27.5059C262.902 26.9785 264.553 26.7148 266.35 26.7148C268.615 26.7148 270.607 27.0957 272.326 27.8574C274.064 28.6191 275.422 29.7617 276.398 31.2852C277.375 32.8086 277.863 34.7227 277.863 37.0273V52.3496C277.863 53.4434 277.941 54.5762 278.098 55.748C278.273 56.9199 278.518 57.8867 278.83 58.6484V59H275.109C274.875 58.2969 274.689 57.418 274.553 56.3633C274.436 55.2891 274.377 54.2734 274.377 53.3164ZM275.197 40.543L275.256 43.2383H268.371C266.574 43.2383 264.963 43.4043 263.537 43.7363C262.131 44.0488 260.939 44.5176 259.963 45.1426C258.986 45.748 258.234 46.4805 257.707 47.3398C257.199 48.1992 256.945 49.1758 256.945 50.2695C256.945 51.4023 257.229 52.4375 257.795 53.375C258.381 54.3125 259.201 55.0645 260.256 55.6309C261.33 56.1777 262.6 56.4512 264.064 56.4512C266.018 56.4512 267.736 56.0898 269.221 55.3672C270.725 54.6445 271.965 53.6973 272.941 52.5254C273.918 51.3535 274.572 50.0742 274.904 48.6875L276.428 50.709C276.174 51.6855 275.705 52.6914 275.021 53.7266C274.357 54.7422 273.488 55.6992 272.414 56.5977C271.34 57.4766 270.07 58.1992 268.605 58.7656C267.16 59.3125 265.52 59.5859 263.684 59.5859C261.613 59.5859 259.807 59.1953 258.264 58.4141C256.74 57.6328 255.549 56.5684 254.689 55.2207C253.85 53.8535 253.43 52.3105 253.43 50.5918C253.43 49.0293 253.762 47.6328 254.426 46.4023C255.09 45.1523 256.047 44.0977 257.297 43.2383C258.566 42.3594 260.09 41.6953 261.867 41.2461C263.664 40.7773 265.676 40.543 267.902 40.543H275.197ZM299.25 27.3008V30.1719H283.371V27.3008H299.25ZM289.201 19.1562H292.688V51.2949C292.688 52.7598 292.883 53.8633 293.273 54.6055C293.664 55.3477 294.172 55.8457 294.797 56.0996C295.422 56.3535 296.096 56.4805 296.818 56.4805C297.346 56.4805 297.854 56.4512 298.342 56.3926C298.83 56.3145 299.27 56.2363 299.66 56.1582L299.807 59.1172C299.377 59.2539 298.82 59.3613 298.137 59.4395C297.453 59.5371 296.77 59.5859 296.086 59.5859C294.738 59.5859 293.547 59.3418 292.512 58.8535C291.477 58.3457 290.666 57.4863 290.08 56.2754C289.494 55.0449 289.201 53.375 289.201 51.2656V19.1562ZM318.293 56.5684C319.777 56.5684 321.164 56.2949 322.453 55.748C323.762 55.1816 324.836 54.3516 325.676 53.2578C326.535 52.1445 327.023 50.7871 327.141 49.1855H330.48C330.383 51.1973 329.768 52.9941 328.635 54.5762C327.521 56.1387 326.057 57.3691 324.24 58.2676C322.443 59.1465 320.461 59.5859 318.293 59.5859C316.086 59.5859 314.133 59.1855 312.434 58.3848C310.754 57.584 309.348 56.4707 308.215 55.0449C307.082 53.5996 306.223 51.9199 305.637 50.0059C305.07 48.0723 304.787 45.9922 304.787 43.7656V42.5352C304.787 40.3086 305.07 38.2383 305.637 36.3242C306.223 34.3906 307.082 32.7109 308.215 31.2852C309.348 29.8398 310.754 28.7168 312.434 27.916C314.113 27.1152 316.057 26.7148 318.264 26.7148C320.529 26.7148 322.561 27.1738 324.357 28.0918C326.174 29.0098 327.619 30.3086 328.693 31.9883C329.787 33.668 330.383 35.6602 330.48 37.9648H327.141C327.043 36.2656 326.594 34.8008 325.793 33.5703C324.992 32.3398 323.938 31.3926 322.629 30.7285C321.32 30.0645 319.865 29.7324 318.264 29.7324C316.467 29.7324 314.934 30.084 313.664 30.7871C312.395 31.4707 311.359 32.418 310.559 33.6289C309.777 34.8203 309.201 36.1875 308.83 37.7305C308.459 39.2539 308.273 40.8555 308.273 42.5352V43.7656C308.273 45.4648 308.449 47.0859 308.801 48.6289C309.172 50.1523 309.748 51.5098 310.529 52.7012C311.33 53.8926 312.365 54.8398 313.635 55.543C314.924 56.2266 316.477 56.5684 318.293 56.5684ZM341.027 14V59H337.541V14H341.027ZM340.236 41.1875L338.684 40.3086C338.801 38.4336 339.182 36.6758 339.826 35.0352C340.471 33.3945 341.34 31.9492 342.434 30.6992C343.547 29.4492 344.846 28.4727 346.33 27.7695C347.834 27.0664 349.494 26.7148 351.311 26.7148C352.893 26.7148 354.309 26.9297 355.559 27.3594C356.809 27.7891 357.873 28.4727 358.752 29.4102C359.631 30.3477 360.295 31.5488 360.744 33.0137C361.213 34.4785 361.447 36.2656 361.447 38.375V59H357.932V38.3457C357.932 36.1582 357.629 34.4492 357.023 33.2188C356.418 31.9688 355.559 31.0801 354.445 30.5527C353.332 30.0254 352.014 29.7617 350.49 29.7617C348.811 29.7617 347.336 30.1328 346.066 30.875C344.816 31.5977 343.762 32.5449 342.902 33.7168C342.062 34.8691 341.418 36.1094 340.969 37.4375C340.52 38.7461 340.275 39.9961 340.236 41.1875Z" fill="#FF0000"/>
<path d="M48.0102 66.137C39.2791 66.137 31.3221 63.767 24.1389 59.0269C16.9558 54.2867 11.5761 47.9443 8 40C11.5761 32.0555 16.9521 25.7133 24.1278 20.973C31.3036 16.233 39.257 13.8628 47.988 13.8628C56.7191 13.8628 64.6762 16.233 71.8593 20.973C79.0425 25.7133 84.4221 32.0555 87.9982 40C84.4221 47.9443 79.0462 54.2867 71.8704 59.0269C64.6946 63.767 56.7412 66.137 48.0102 66.137ZM48.0008 62.1161C55.5924 62.1161 62.5626 60.1222 68.9113 56.1344C75.2601 52.1467 80.114 46.7685 83.4731 40C80.114 33.231 75.2601 27.8528 68.9113 23.8654C62.5626 19.8776 55.5924 17.8837 48.0008 17.8837C40.4092 17.8837 33.439 19.8776 27.0902 23.8654C20.7415 27.8528 15.8876 33.231 12.5284 40C15.8876 46.7685 20.7415 52.1467 27.0902 56.1344C33.439 60.1222 40.4092 62.1161 48.0008 62.1161Z" fill="#FF0000"/>
<circle cx="47.9998" cy="50.4348" r="15.6522" fill="#FF0000"/>
</g>
<defs>
<clipPath id="clip0_76_12">
<rect width="368" height="80" fill="white"/>
</clipPath>
</defs>
</svg>
